# Blender 5.0.1
# www.blender.org
mtllib Centre.mtl
o Cube
v -8.072876 -0.288275 8.072876
v -7.766765 0.288275 7.740666
v -8.072876 -0.288275 -8.072876
v -7.766765 0.288275 -7.740666
v 8.072876 -0.288275 8.072876
v 7.766765 0.288275 7.740666
v 8.072876 -0.288275 -8.072876
v 7.766765 0.288275 -7.740666
v -11.979063 -0.288275 0.000000
v -11.512208 0.288275 0.000000
v 11.979063 -0.288275 0.000000
v 11.512208 0.288275 0.000000
v 0.000000 -0.288275 -11.194115
v 0.000000 0.288275 -10.743552
v 0.000000 -0.288275 11.194115
v 0.000000 0.288275 10.743552
v 0.000000 -0.288275 0.000000
v -11.979063 0.288275 0.000000
v -8.072876 0.288275 -8.072876
v 0.000000 0.288275 -11.194115
v 8.072876 0.288275 -8.072876
v 11.979063 0.288275 0.000000
v 8.072876 0.288275 8.072876
v 0.000000 0.288275 11.194115
v -8.072876 0.288275 8.072876
v 11.512208 0.550099 0.000000
v -11.512208 0.550099 0.000000
v 0.000000 0.550099 -10.330080
v 0.000000 0.550099 10.330080
v -7.485852 0.550099 -7.435803
v 7.485852 0.550099 -7.435803
v 7.485852 0.550099 7.435803
v -7.485852 0.550099 7.435803
v -11.083783 0.550099 0.000000
v -7.766765 0.550099 -7.740666
v 0.000000 0.550099 -10.743552
v 7.766765 0.550099 -7.740666
v 11.083783 0.550099 0.000000
v 7.766765 0.550099 7.740666
v 0.000000 0.550099 10.743552
v -7.766765 0.550099 7.740666
v 10.517654 0.846095 0.000000
v -10.517654 0.846095 0.000000
v 0.000000 0.846095 -10.330080
v 0.000000 0.846095 10.330080
v -7.114649 0.846095 -7.032952
v 7.114649 0.846095 -7.032952
v 7.114649 0.846095 7.032952
v -7.114649 0.846095 7.032952
v -11.083783 0.846095 0.000000
v -7.485852 0.846095 -7.435803
v 0.000000 0.846095 -9.783710
v 7.485852 0.846095 -7.435803
v 11.083783 0.846095 0.000000
v 7.485852 0.846095 7.435803
v 0.000000 0.846095 9.783710
v -7.485852 0.846095 7.435803
v -0.000000 0.673762 -0.000000
v -0.916750 0.673762 -0.916750
v 0.916750 0.673762 -0.916750
v 0.916750 0.673762 0.916750
v -0.916750 0.673762 0.916750
v -1.296480 0.673762 -0.000000
v 0.000000 0.673762 -1.296480
v 1.296480 0.673762 0.000000
v -0.000000 0.673762 1.296480
v -8.212360 0.803012 -0.000000
v -5.907067 0.759929 -0.000000
v -3.601774 0.716845 -0.000000
v -2.466225 0.716845 -2.445801
v -4.015699 0.759928 -3.974851
v -5.565174 0.803012 -5.503902
v 0.000000 0.803012 -7.661902
v 0.000000 0.759929 -5.540095
v 0.000000 0.716845 -3.418288
v 2.466225 0.716845 -2.445801
v 4.015699 0.759928 -3.974851
v 5.565174 0.803012 -5.503902
v 8.212360 0.803012 0.000000
v 5.907067 0.759929 0.000000
v 3.601774 0.716845 0.000000
v 2.466225 0.716845 2.445801
v 4.015699 0.759928 3.974851
v 5.565174 0.803012 5.503902
v -0.000000 0.803012 7.661902
v -0.000000 0.759929 5.540095
v -0.000000 0.716845 3.418288
v -2.466225 0.716845 2.445801
v -4.015699 0.759928 3.974851
v -5.565174 0.803012 5.503902
v -0.166674 0.673762 0.166674
v -1.047035 0.673762 0.166674
v -0.789183 0.673762 0.789183
v -0.166674 0.673762 1.047035
v -0.166674 0.673762 -1.047035
v -0.789183 0.673762 -0.789183
v -1.047035 0.673762 -0.166674
v -0.166674 0.673762 -0.166674
v 0.789183 0.673762 -0.789183
v 0.166674 0.673762 -1.047035
v 0.166674 0.673762 -0.166674
v 1.047035 0.673762 -0.166674
v 1.047035 0.673762 0.166674
v 0.166674 0.673762 0.166674
v 0.166674 0.673762 1.047035
v 0.789183 0.673762 0.789183
v -2.414802 0.713436 -2.160903
v -3.340703 0.713319 -0.166665
v -1.407783 0.677297 -0.166663
v -1.113613 0.677154 -0.876864
v 2.167023 0.713199 -2.384692
v 0.166664 0.713250 -3.173476
v 0.166665 0.677352 -1.407780
v 0.878338 0.677412 -1.112993
v 2.414802 0.713436 2.160903
v 3.340703 0.713319 0.166665
v 1.407783 0.677297 0.166663
v 1.113613 0.677154 0.876864
v -2.167023 0.713199 2.384692
v -0.166664 0.713250 3.173476
v -0.166665 0.677352 1.407780
v -0.878338 0.677412 1.112993
v -3.340703 0.713319 0.166665
v -2.414802 0.713436 2.160903
v -1.113613 0.677154 0.876864
v -1.407783 0.677297 0.166663
v 3.340703 0.713319 -0.166664
v 2.414802 0.713436 -2.160903
v 1.113613 0.677154 -0.876864
v 1.407783 0.677297 -0.166663
v -0.166664 0.713250 -3.173476
v -2.167023 0.713199 -2.384692
v -0.878338 0.677412 -1.112993
v -0.166665 0.677352 -1.407780
v 0.166664 0.713250 3.173476
v 2.167023 0.713199 2.384692
v 0.878338 0.677412 1.112993
v 0.166665 0.677352 1.407780
v 0.166665 0.842476 9.540647
v 6.814111 0.842471 6.970525
v 5.524831 0.806634 5.698239
v 0.166665 0.806632 7.775969
v 0.166665 0.799394 7.418581
v 5.264835 0.799386 5.441670
v 3.975504 0.763552 4.169333
v 0.166665 0.763547 5.653947
v 0.166665 0.756315 5.296317
v 3.715711 0.756299 3.912966
v 2.426361 0.720472 2.640611
v 0.166665 0.720460 3.531659
v -0.166665 0.842476 -9.540647
v -6.814111 0.842471 -6.970525
v -5.524831 0.806634 -5.698239
v -0.166665 0.806632 -7.775969
v -0.166665 0.799394 -7.418581
v -5.264835 0.799386 -5.441670
v -3.975504 0.763552 -4.169333
v -0.166665 0.763547 -5.653947
v -0.166665 0.756315 -5.296317
v -3.715711 0.756299 -3.912966
v -2.426361 0.720472 -2.640611
v -0.166665 0.720460 -3.531659
v 10.251921 0.842618 -0.166663
v 7.066059 0.842629 -6.750848
v 5.766922 0.806479 -5.468835
v 8.317082 0.806485 -0.166662
v 7.947321 0.799532 -0.166663
v 5.516171 0.799550 -5.221390
v 4.217073 0.763393 -3.939415
v 6.012275 0.763404 -0.166662
v 5.643251 0.756440 -0.166663
v 3.965961 0.756477 -3.691614
v 2.666757 0.720300 -2.409534
v 3.708088 0.720327 -0.166662
v -10.251921 0.842618 0.166663
v -7.066059 0.842629 6.750848
v -5.766922 0.806479 5.468835
v -8.317082 0.806485 0.166662
v -7.947321 0.799532 0.166663
v -5.516171 0.799550 5.221390
v -4.217073 0.763393 3.939415
v -6.012275 0.763404 0.166662
v -5.643251 0.756440 0.166663
v -3.965961 0.756477 3.691614
v -2.666757 0.720300 2.409534
v -3.708088 0.720327 0.166662
v -6.814111 0.842471 6.970525
v -0.166665 0.842476 9.540647
v -0.166665 0.806632 7.775969
v -5.524831 0.806634 5.698239
v -5.264835 0.799386 5.441670
v -0.166665 0.799394 7.418581
v -0.166665 0.763547 5.653947
v -3.975504 0.763552 4.169333
v -3.715712 0.756299 3.912966
v -0.166665 0.756315 5.296317
v -0.166665 0.720460 3.531659
v -2.426361 0.720472 2.640611
v 7.066059 0.842629 6.750848
v 10.251921 0.842618 0.166663
v 8.317082 0.806485 0.166662
v 5.766922 0.806479 5.468835
v 5.516171 0.799550 5.221390
v 7.947321 0.799532 0.166663
v 6.012275 0.763404 0.166662
v 4.217073 0.763393 3.939415
v 3.965961 0.756477 3.691614
v 5.643251 0.756440 0.166663
v 3.708088 0.720327 0.166663
v 2.666757 0.720300 2.409534
v 6.814111 0.842471 -6.970525
v 0.166665 0.842476 -9.540647
v 0.166665 0.806632 -7.775969
v 5.524831 0.806634 -5.698239
v 5.264835 0.799386 -5.441670
v 0.166665 0.799394 -7.418581
v 0.166665 0.763547 -5.653947
v 3.975504 0.763552 -4.169333
v 3.715712 0.756299 -3.912966
v 0.166665 0.756315 -5.296317
v 0.166665 0.720460 -3.531659
v 2.426361 0.720472 -2.640611
v -7.066059 0.842629 -6.750848
v -10.251921 0.842618 -0.166663
v -8.317082 0.806485 -0.166662
v -5.766922 0.806479 -5.468835
v -5.516171 0.799550 -5.221390
v -7.947321 0.799532 -0.166663
v -6.012275 0.763404 -0.166662
v -4.217073 0.763393 -3.939415
v -3.965961 0.756477 -3.691614
v -5.643251 0.756440 -0.166663
v -3.708088 0.720327 -0.166663
v -2.666757 0.720300 -2.409534
v -1.047035 0.615752 0.166674
v -0.166674 0.615752 0.166674
v -0.166674 0.615752 1.047035
v -0.789183 0.615752 0.789183
v -0.789183 0.615752 -0.789183
v -0.166674 0.615752 -1.047035
v -0.166674 0.615752 -0.166674
v -1.047035 0.615752 -0.166674
v 0.166674 0.615752 -1.047035
v 0.789183 0.615752 -0.789183
v 1.047035 0.615752 -0.166674
v 0.166674 0.615752 -0.166674
v 0.166674 0.615752 0.166674
v 1.047035 0.615752 0.166674
v 0.789183 0.615752 0.789183
v 0.166674 0.615752 1.047035
v -3.340703 0.655309 -0.166665
v -2.414802 0.655426 -2.160903
v -1.113613 0.619144 -0.876864
v -1.407783 0.619287 -0.166663
v 0.166664 0.655240 -3.173476
v 2.167023 0.655189 -2.384692
v 0.878338 0.619402 -1.112993
v 0.166665 0.619342 -1.407780
v 3.340703 0.655309 0.166665
v 2.414802 0.655426 2.160903
v 1.113613 0.619144 0.876864
v 1.407783 0.619287 0.166663
v -0.166664 0.655240 3.173476
v -2.167023 0.655189 2.384692
v -0.878338 0.619402 1.112993
v -0.166665 0.619342 1.407780
v -2.414802 0.655426 2.160903
v -3.340703 0.655309 0.166665
v -1.407783 0.619287 0.166663
v -1.113613 0.619144 0.876864
v 2.414802 0.655426 -2.160903
v 3.340703 0.655309 -0.166664
v 1.407783 0.619287 -0.166663
v 1.113613 0.619144 -0.876864
v -2.167023 0.655189 -2.384692
v -0.166664 0.655240 -3.173476
v -0.166665 0.619342 -1.407780
v -0.878338 0.619402 -1.112993
v 2.167023 0.655189 2.384692
v 0.166664 0.655240 3.173476
v 0.166665 0.619342 1.407780
v 0.878338 0.619402 1.112993
v 6.814111 0.784461 6.970525
v 0.166665 0.784466 9.540647
v 0.166665 0.748622 7.775969
v 5.524831 0.748624 5.698239
v 5.264835 0.741376 5.441670
v 0.166665 0.741384 7.418581
v 0.166665 0.705537 5.653947
v 3.975504 0.705542 4.169333
v 3.715711 0.698289 3.912966
v 0.166665 0.698305 5.296317
v 0.166665 0.662450 3.531659
v 2.426361 0.662462 2.640611
v -6.814111 0.784461 -6.970525
v -0.166665 0.784466 -9.540647
v -0.166665 0.748622 -7.775969
v -5.524831 0.748624 -5.698239
v -5.264835 0.741376 -5.441670
v -0.166665 0.741384 -7.418581
v -0.166665 0.705537 -5.653947
v -3.975504 0.705542 -4.169333
v -3.715711 0.698289 -3.912966
v -0.166665 0.698305 -5.296317
v -0.166665 0.662450 -3.531659
v -2.426361 0.662462 -2.640611
v 7.066059 0.784619 -6.750848
v 10.251921 0.784608 -0.166663
v 8.317082 0.748475 -0.166662
v 5.766922 0.748469 -5.468835
v 5.516171 0.741540 -5.221390
v 7.947321 0.741522 -0.166663
v 6.012275 0.705394 -0.166662
v 4.217073 0.705383 -3.939415
v 3.965961 0.698467 -3.691614
v 5.643251 0.698430 -0.166663
v 3.708088 0.662317 -0.166662
v 2.666757 0.662290 -2.409534
v -7.066059 0.784619 6.750848
v -10.251921 0.784608 0.166663
v -8.317082 0.748475 0.166662
v -5.766922 0.748469 5.468835
v -5.516171 0.741540 5.221390
v -7.947321 0.741522 0.166663
v -6.012275 0.705394 0.166662
v -4.217073 0.705383 3.939415
v -3.965961 0.698467 3.691614
v -5.643251 0.698430 0.166663
v -3.708088 0.662317 0.166662
v -2.666757 0.662290 2.409534
v -0.166665 0.784466 9.540647
v -6.814111 0.784461 6.970525
v -5.524831 0.748624 5.698239
v -0.166665 0.748622 7.775969
v -0.166665 0.741384 7.418581
v -5.264835 0.741376 5.441670
v -3.975504 0.705542 4.169333
v -0.166665 0.705537 5.653947
v -0.166665 0.698305 5.296317
v -3.715712 0.698289 3.912966
v -2.426361 0.662462 2.640611
v -0.166665 0.662450 3.531659
v 10.251921 0.784608 0.166663
v 7.066059 0.784619 6.750848
v 5.766922 0.748469 5.468835
v 8.317082 0.748475 0.166662
v 7.947321 0.741522 0.166663
v 5.516171 0.741540 5.221390
v 4.217073 0.705383 3.939415
v 6.012275 0.705394 0.166662
v 5.643251 0.698430 0.166663
v 3.965961 0.698467 3.691614
v 2.666757 0.662290 2.409534
v 3.708088 0.662317 0.166663
v 0.166665 0.784466 -9.540647
v 6.814111 0.784461 -6.970525
v 5.524831 0.748624 -5.698239
v 0.166665 0.748622 -7.775969
v 0.166665 0.741384 -7.418581
v 5.264835 0.741376 -5.441670
v 3.975504 0.705542 -4.169333
v 0.166665 0.705537 -5.653947
v 0.166665 0.698305 -5.296317
v 3.715712 0.698289 -3.912966
v 2.426361 0.662462 -2.640611
v 0.166665 0.662450 -3.531659
v -10.251921 0.784608 -0.166663
v -7.066059 0.784619 -6.750848
v -5.766922 0.748469 -5.468835
v -8.317082 0.748475 -0.166662
v -7.947321 0.741522 -0.166663
v -5.516171 0.741540 -5.221390
v -4.217073 0.705383 -3.939415
v -6.012275 0.705394 -0.166662
v -5.643251 0.698430 -0.166663
v -3.965961 0.698467 -3.691614
v -2.666757 0.662290 -2.409534
v -3.708088 0.662317 -0.166663
vn -0.9002 -0.0000 -0.4356
vn 0.3606 -0.0000 -0.9327
vn 0.9002 -0.0000 0.4356
vn -0.3606 -0.0000 0.9327
vn -0.0000 -1.0000 -0.0000
vn -0.9002 -0.0000 0.4356
vn -0.3606 -0.0000 -0.9327
vn 0.9002 -0.0000 -0.4356
vn 0.3606 -0.0000 0.9327
vn -0.0000 1.0000 -0.0000
vn -0.3827 -0.0000 0.9239
vn -0.0000 -0.0000 -1.0000
vn -1.0000 -0.0000 -0.0000
vn -0.9030 -0.0000 0.4297
vn 0.7024 -0.0000 0.7118
vn -0.3668 -0.0000 0.9303
vn 0.3668 -0.0000 -0.9303
vn 0.3632 -0.0000 0.9317
vn -0.7024 -0.0000 0.7118
vn 0.3827 -0.0000 -0.9239
vn 0.3632 -0.0000 -0.9317
vn 1.0000 -0.0000 -0.0000
vn 0.9239 -0.0000 -0.3827
vn -0.3615 -0.0000 -0.9324
vn 0.9030 -0.0000 -0.4297
vn -0.0000 -0.0000 1.0000
vn -0.7024 -0.0000 -0.7118
vn 0.9239 -0.0000 0.3827
vn -0.3632 -0.0000 0.9317
vn -0.9012 -0.0000 0.4334
vn 0.7024 -0.0000 -0.7118
vn -0.9070 -0.0000 -0.4211
vn 0.3615 -0.0000 0.9324
vn 0.0189 0.9998 0.0088
vn 0.0187 0.9998 0.0084
vn 0.0192 0.9998 0.0079
vn 0.0193 0.9998 0.0087
vn -0.0080 0.9998 0.0202
vn -0.0081 0.9998 0.0203
vn -0.0083 0.9998 0.0201
vn -0.0080 0.9998 0.0200
vn -0.0189 0.9998 -0.0088
vn -0.0187 0.9998 -0.0084
vn -0.0192 0.9998 -0.0079
vn -0.0193 0.9998 -0.0087
vn 0.0080 0.9998 -0.0202
vn 0.0081 0.9998 -0.0203
vn 0.0083 0.9998 -0.0201
vn 0.0080 0.9998 -0.0200
vn 0.0189 0.9998 -0.0088
vn 0.0193 0.9998 -0.0087
vn 0.0192 0.9998 -0.0079
vn 0.0187 0.9998 -0.0084
vn -0.0189 0.9998 0.0088
vn -0.0193 0.9998 0.0087
vn -0.0192 0.9998 0.0079
vn -0.0187 0.9998 0.0084
vn 0.0080 0.9998 0.0202
vn 0.0080 0.9998 0.0200
vn 0.0083 0.9998 0.0201
vn 0.0081 0.9998 0.0203
vn -0.0080 0.9998 -0.0202
vn -0.0080 0.9998 -0.0200
vn -0.0083 0.9998 -0.0201
vn -0.0081 0.9998 -0.0203
vn -0.0078 0.9998 -0.0203
vn -0.0078 0.9998 -0.0202
vn -0.0079 0.9998 -0.0203
vn -0.0079 0.9998 -0.0202
vn -0.0080 0.9998 -0.0203
vn 0.0078 0.9998 0.0203
vn 0.0078 0.9998 0.0202
vn 0.0079 0.9998 0.0203
vn 0.0079 0.9998 0.0202
vn 0.0080 0.9998 0.0203
vn -0.0187 0.9998 0.0091
vn -0.0188 0.9998 0.0091
vn -0.0188 0.9998 0.0090
vn -0.0187 0.9998 0.0090
vn -0.0189 0.9998 0.0090
vn -0.0188 0.9998 0.0089
vn -0.0187 0.9998 0.0089
vn -0.0190 0.9998 0.0090
vn -0.0187 0.9998 0.0088
vn 0.0187 0.9998 -0.0091
vn 0.0188 0.9998 -0.0091
vn 0.0188 0.9998 -0.0090
vn 0.0187 0.9998 -0.0090
vn 0.0189 0.9998 -0.0090
vn 0.0188 0.9998 -0.0089
vn 0.0187 0.9998 -0.0089
vn 0.0190 0.9998 -0.0090
vn 0.0187 0.9998 -0.0088
vn 0.0078 0.9998 -0.0203
vn 0.0079 0.9998 -0.0203
vn 0.0078 0.9998 -0.0202
vn 0.0079 0.9998 -0.0202
vn 0.0080 0.9998 -0.0203
vn -0.0187 0.9998 -0.0091
vn -0.0187 0.9998 -0.0090
vn -0.0188 0.9998 -0.0090
vn -0.0188 0.9998 -0.0091
vn -0.0187 0.9998 -0.0089
vn -0.0188 0.9998 -0.0089
vn -0.0189 0.9998 -0.0090
vn -0.0187 0.9998 -0.0088
vn -0.0190 0.9998 -0.0090
vn -0.0078 0.9998 0.0203
vn -0.0079 0.9998 0.0203
vn -0.0078 0.9998 0.0202
vn -0.0079 0.9998 0.0202
vn -0.0080 0.9998 0.0203
vn 0.0187 0.9998 0.0091
vn 0.0187 0.9998 0.0090
vn 0.0188 0.9998 0.0090
vn 0.0188 0.9998 0.0091
vn 0.0187 0.9998 0.0089
vn 0.0188 0.9998 0.0089
vn 0.0189 0.9998 0.0090
vn 0.0187 0.9998 0.0088
vn 0.0190 0.9998 0.0090
vn 0.0190 0.9998 0.0085
vn -0.0081 0.9998 0.0202
vn -0.0190 0.9998 -0.0085
vn 0.0081 0.9998 -0.0202
vn 0.0190 0.9998 -0.0085
vn -0.0190 0.9998 0.0085
vn 0.0081 0.9998 0.0202
vn -0.0081 0.9998 -0.0202
vn 0.3827 -0.0000 0.9239
vn 0.9070 -0.0000 -0.4211
vn -0.3632 -0.0000 -0.9317
vn -0.9012 -0.0000 -0.4334
vn 0.3668 -0.0000 0.9303
vn 0.9012 -0.0000 0.4334
vn -0.9239 -0.0000 0.3827
vn -0.9030 -0.0000 -0.4297
vn -0.9070 -0.0000 0.4211
vn 0.9030 -0.0000 0.4297
vn 0.9012 -0.0000 -0.4334
vn -0.9239 -0.0000 -0.3827
vn -0.3827 -0.0000 -0.9239
vn 0.9070 -0.0000 0.4211
vn -0.3668 -0.0000 -0.9303
vn 0.3615 -0.0000 -0.9324
vn -0.3615 -0.0000 0.9324
vt 0.145406 0.375135
vt 0.143392 0.385107
vt 0.143392 0.385107
vt 0.143392 0.385107
vt 0.143392 0.385107
vt 0.143392 0.385107
vt 0.143392 0.385107
vt 0.143392 0.385107
vt 0.143392 0.385107
vt 0.143392 0.385107
vt 0.142162 0.454932
vt 0.142162 0.454932
vt 0.142162 0.454932
vt 0.142162 0.454932
vt 0.142162 0.454932
vt 0.142162 0.454932
vt 0.142162 0.454932
vt 0.142162 0.454932
s 0
usemtl ImphenziaPixPal
f 9/1/1 18/1/1 19/1/1 3/1/1
f 13/1/2 20/1/2 21/1/2 7/1/2
f 11/1/3 22/1/3 23/1/3 5/1/3
f 15/1/4 24/1/4 25/1/4 1/1/4
f 17/2/5 11/2/5 5/2/5 15/2/5
f 10/1/6 2/1/6 41/1/6 27/1/6
f 14/1/7 4/1/7 35/1/7 36/1/7
f 13/2/5 7/2/5 11/2/5 17/2/5
f 7/1/8 21/1/8 22/1/8 11/1/8
f 1/1/6 25/1/6 18/1/6 9/1/6
f 3/2/5 13/2/5 17/2/5 9/2/5
f 8/1/2 14/1/2 36/1/2 37/1/2
f 2/1/4 16/1/4 40/1/4 41/1/4
f 9/2/5 17/2/5 15/2/5 1/2/5
f 5/1/9 23/1/9 24/1/9 15/1/9
f 3/1/7 19/1/7 20/1/7 13/1/7
f 10/2/10 4/2/10 19/2/10 18/2/10
f 14/2/10 8/2/10 21/2/10 20/2/10
f 12/2/10 6/2/10 23/2/10 22/2/10
f 16/2/10 2/2/10 25/2/10 24/2/10
f 2/2/10 10/2/10 18/2/10 25/2/10
f 8/2/10 12/2/10 22/2/10 21/2/10
f 4/2/10 14/2/10 20/2/10 19/2/10
f 6/2/10 16/2/10 24/2/10 23/2/10
f 38/1/8 31/1/8 53/1/8 54/1/8
f 29/1/9 32/1/9 55/1/9 45/1/9
f 30/1/1 34/1/1 50/1/1 51/1/1
f 32/1/3 38/1/3 54/1/3 55/1/3
f 6/1/3 12/1/3 26/1/3 39/1/3
f 4/1/1 10/1/1 27/1/1 35/1/1
f 16/1/9 6/1/9 39/1/9 40/1/9
f 12/1/8 8/1/8 37/1/8 26/1/8
f 34/2/10 30/2/10 35/2/10 27/2/10
f 28/2/10 31/2/10 37/2/10 36/2/10
f 38/2/10 32/2/10 39/2/10 26/2/10
f 29/2/10 33/2/10 41/2/10 40/2/10
f 33/2/10 34/2/10 27/2/10 41/2/10
f 31/2/10 38/2/10 26/2/10 37/2/10
f 30/2/10 28/2/10 36/2/10 35/2/10
f 32/2/10 29/2/10 40/2/10 39/2/10
f 33/1/4 29/1/4 45/1/4 57/1/4
f 31/1/2 28/1/2 44/1/2 53/1/2
f 28/1/7 30/1/7 51/1/7 44/1/7
f 34/1/6 33/1/6 57/1/6 50/1/6
f 43/2/10 46/2/10 51/2/10 50/2/10
f 52/2/10 47/2/10 53/2/10 44/2/10
f 42/2/10 48/2/10 55/2/10 54/2/10
f 56/2/10 49/2/10 57/2/10 45/2/10
f 49/2/10 43/2/10 50/2/10 57/2/10
f 47/2/10 42/2/10 54/2/10 53/2/10
f 46/2/10 52/2/10 44/2/10 51/2/10
f 48/2/10 56/2/10 45/2/10 55/2/10
f 121/2/11 122/2/11 265/2/11 266/2/11
f 223/3/3 224/4/3 367/4/3 368/3/3
f 174/2/12 171/5/12 316/5/12 317/2/12
f 120/6/13 121/2/13 266/2/13 263/6/13
f 171/5/14 172/7/14 315/7/14 316/5/14
f 122/2/15 119/4/15 264/4/15 265/2/15
f 197/4/16 198/7/16 341/7/16 342/4/16
f 119/4/17 120/6/17 263/6/17 264/4/17
f 196/6/13 197/4/13 342/4/13 339/6/13
f 145/2/18 146/2/18 289/2/18 290/2/18
f 198/7/15 195/5/15 340/5/15 341/7/15
f 144/3/19 145/2/19 290/2/19 287/3/19
f 93/7/20 94/2/20 237/2/20 238/7/20
f 195/5/21 196/6/21 339/6/21 340/5/21
f 146/2/22 143/2/22 288/2/22 289/2/22
f 92/2/23 93/7/23 238/7/23 235/2/23
f 221/4/17 222/7/17 365/7/17 366/4/17
f 143/2/24 144/3/24 287/3/24 288/2/24
f 94/2/13 91/2/13 236/2/13 237/2/13
f 220/2/22 221/4/22 366/4/22 363/2/22
f 169/2/25 170/2/25 313/2/25 314/2/25
f 91/2/26 92/2/26 235/2/26 236/2/26
f 222/7/27 219/5/27 364/5/27 365/7/27
f 168/2/15 169/2/15 314/2/15 311/2/15
f 117/2/28 118/2/28 261/2/28 262/2/28
f 219/5/29 220/2/29 363/2/29 364/5/29
f 170/2/12 167/2/12 312/2/12 313/2/12
f 116/3/26 117/2/26 262/2/26 259/3/26
f 167/2/30 168/2/30 311/2/30 312/2/30
f 118/2/31 115/4/31 260/4/31 261/2/31
f 193/2/29 194/2/29 337/2/29 338/2/29
f 115/4/32 116/3/32 259/3/32 260/4/32
f 192/8/13 193/2/13 338/2/13 335/8/13
f 141/4/33 142/2/33 285/2/33 286/4/33
f 194/2/15 191/7/15 336/7/15 337/2/15
f 140/7/19 141/4/19 286/4/19 283/7/19
f 58/2/10 63/2/10 92/2/10 91/2/10
f 63/2/10 62/2/10 93/7/10 92/2/10
f 62/2/10 66/2/10 94/2/10 93/7/10
f 66/2/10 58/2/10 91/2/10 94/2/10
f 64/2/10 59/2/10 96/2/10 95/4/10
f 59/2/10 63/2/10 97/4/10 96/2/10
f 63/2/10 58/2/10 98/2/10 97/4/10
f 58/2/10 64/2/10 95/4/10 98/2/10
f 60/2/10 64/2/10 100/4/10 99/2/10
f 64/2/10 58/2/10 101/3/10 100/4/10
f 58/2/10 65/2/10 102/7/10 101/3/10
f 65/2/10 60/2/10 99/2/10 102/7/10
f 65/2/10 58/2/10 104/4/10 103/4/10
f 58/2/10 66/2/10 105/2/10 104/4/10
f 66/2/10 61/2/10 106/2/10 105/2/10
f 61/2/10 65/2/10 103/4/10 106/2/10
f 70/2/34 69/2/34 108/2/34 107/7/34
f 69/2/35 63/2/35 109/2/35 108/2/35
f 63/2/36 59/2/36 110/7/36 109/2/36
f 59/2/37 70/2/37 107/7/37 110/7/37
f 76/2/38 75/2/38 112/9/38 111/7/38
f 75/2/39 64/2/39 113/4/39 112/9/39
f 64/2/40 60/2/40 114/4/40 113/4/40
f 60/2/41 76/2/41 111/7/41 114/4/41
f 82/2/42 81/2/42 116/3/42 115/4/42
f 81/2/43 65/2/43 117/2/43 116/3/43
f 65/2/44 61/2/44 118/2/44 117/2/44
f 61/2/45 82/2/45 115/4/45 118/2/45
f 88/2/46 87/2/46 120/6/46 119/4/46
f 87/2/47 66/2/47 121/2/47 120/6/47
f 66/2/48 62/2/48 122/2/48 121/2/48
f 62/2/49 88/2/49 119/4/49 122/2/49
f 69/2/50 88/2/50 124/4/50 123/7/50
f 88/2/51 62/2/51 125/2/51 124/4/51
f 62/2/52 63/2/52 126/9/52 125/2/52
f 63/2/53 69/2/53 123/7/53 126/9/53
f 81/2/54 76/2/54 128/2/54 127/6/54
f 76/2/55 60/2/55 129/2/55 128/2/55
f 60/2/56 65/2/56 130/2/56 129/2/56
f 65/2/57 81/2/57 127/6/57 130/2/57
f 75/2/58 70/2/58 132/2/58 131/4/58
f 70/2/59 59/2/59 133/2/59 132/2/59
f 59/2/60 64/2/60 134/2/60 133/2/60
f 64/2/61 75/2/61 131/4/61 134/2/61
f 87/2/62 82/2/62 136/7/62 135/3/62
f 82/2/63 61/2/63 137/2/63 136/7/63
f 61/2/64 66/2/64 138/2/64 137/2/64
f 66/2/65 87/2/65 135/3/65 138/2/65
f 56/2/66 48/2/66 140/7/66 139/6/66
f 48/2/67 84/2/67 141/4/67 140/7/67
f 84/2/68 85/2/68 142/2/68 141/4/68
f 85/2/68 56/2/68 139/6/68 142/2/68
f 85/2/68 84/2/68 144/3/68 143/2/68
f 84/2/69 83/2/69 145/2/69 144/3/69
f 83/2/69 86/2/69 146/2/69 145/2/69
f 86/2/68 85/2/68 143/2/68 146/2/68
f 86/2/69 83/2/69 148/6/69 147/2/69
f 83/2/69 82/2/69 149/2/69 148/6/69
f 82/2/62 87/2/62 150/2/62 149/2/62
f 87/2/70 86/2/70 147/2/70 150/2/70
f 52/2/71 46/2/71 152/7/71 151/6/71
f 46/2/72 72/2/72 153/4/72 152/7/72
f 72/2/73 73/2/73 154/2/73 153/4/73
f 73/2/73 52/2/73 151/6/73 154/2/73
f 73/2/73 72/2/73 156/3/73 155/2/73
f 72/2/74 71/2/74 157/2/74 156/3/74
f 71/2/74 74/2/74 158/2/74 157/2/74
f 74/2/73 73/2/73 155/2/73 158/2/73
f 74/2/74 71/2/74 160/6/74 159/2/74
f 71/2/74 70/2/74 161/2/74 160/6/74
f 70/2/58 75/2/58 162/2/58 161/2/58
f 75/2/75 74/2/75 159/2/75 162/2/75
f 42/2/76 47/2/76 164/5/76 163/4/76
f 47/2/77 78/2/77 165/5/77 164/5/77
f 78/2/78 79/2/78 166/2/78 165/5/78
f 79/2/79 42/2/79 163/4/79 166/2/79
f 79/2/78 78/2/78 168/2/78 167/2/78
f 78/2/80 77/2/80 169/2/80 168/2/80
f 77/2/81 80/2/81 170/2/81 169/2/81
f 80/2/82 79/2/82 167/2/82 170/2/82
f 80/2/78 77/2/78 172/7/78 171/5/78
f 77/2/83 76/2/83 173/4/83 172/7/83
f 76/2/54 81/2/54 174/2/54 173/4/54
f 81/2/84 80/2/84 171/5/84 174/2/84
f 43/2/85 49/2/85 176/5/85 175/4/85
f 49/2/86 90/2/86 177/5/86 176/5/86
f 90/2/87 67/2/87 178/2/87 177/5/87
f 67/2/88 43/2/88 175/4/88 178/2/88
f 67/2/87 90/2/87 180/2/87 179/2/87
f 90/2/89 89/2/89 181/2/89 180/2/89
f 89/2/90 68/2/90 182/2/90 181/2/90
f 68/2/91 67/2/91 179/2/91 182/2/91
f 68/2/87 89/2/87 184/7/87 183/7/87
f 89/2/92 88/2/92 185/4/92 184/7/92
f 88/2/50 69/2/50 186/6/50 185/4/50
f 69/2/93 68/2/93 183/7/93 186/6/93
f 49/2/94 56/2/94 188/7/94 187/7/94
f 56/2/95 85/2/95 189/4/95 188/7/95
f 85/2/95 90/2/95 190/4/95 189/4/95
f 90/2/96 49/2/96 187/7/96 190/4/96
f 90/2/95 85/2/95 192/8/95 191/7/95
f 85/2/95 86/2/95 193/2/95 192/8/95
f 86/2/97 89/2/97 194/2/97 193/2/97
f 89/2/97 90/2/97 191/7/97 194/2/97
f 89/2/97 86/2/97 196/6/97 195/5/97
f 86/2/98 87/2/98 197/4/98 196/6/98
f 87/2/46 88/2/46 198/7/46 197/4/46
f 88/2/97 89/2/97 195/5/97 198/7/97
f 48/2/99 42/2/99 200/4/99 199/3/99
f 42/2/100 79/2/100 201/7/100 200/4/100
f 79/2/101 84/2/101 202/7/101 201/7/101
f 84/2/102 48/2/102 199/3/102 202/7/102
f 84/2/101 79/2/101 204/10/101 203/7/101
f 79/2/103 80/2/103 205/2/103 204/10/103
f 80/2/104 83/2/104 206/7/104 205/2/104
f 83/2/105 84/2/105 203/7/105 206/7/105
f 83/2/101 80/2/101 208/7/101 207/9/101
f 80/2/106 81/2/106 209/4/106 208/7/106
f 81/2/42 82/2/42 210/3/42 209/4/42
f 82/2/107 83/2/107 207/9/107 210/3/107
f 47/2/108 52/2/108 212/7/108 211/7/108
f 52/2/109 73/2/109 213/4/109 212/7/109
f 73/2/109 78/2/109 214/4/109 213/4/109
f 78/2/110 47/2/110 211/7/110 214/4/110
f 78/2/109 73/2/109 216/8/109 215/7/109
f 73/2/109 74/2/109 217/2/109 216/8/109
f 74/2/111 77/2/111 218/2/111 217/2/111
f 77/2/111 78/2/111 215/7/111 218/2/111
f 77/2/111 74/2/111 220/2/111 219/5/111
f 74/2/112 75/2/112 221/4/112 220/2/112
f 75/2/38 76/2/38 222/7/38 221/4/38
f 76/2/111 77/2/111 219/5/111 222/7/111
f 46/2/113 43/2/113 224/4/113 223/3/113
f 43/2/114 67/2/114 225/7/114 224/4/114
f 67/2/115 72/2/115 226/7/115 225/7/115
f 72/2/116 46/2/116 223/3/116 226/7/116
f 72/2/115 67/2/115 228/10/115 227/7/115
f 67/2/117 68/2/117 229/2/117 228/10/117
f 68/2/118 71/2/118 230/7/118 229/2/118
f 71/2/119 72/2/119 227/7/119 230/7/119
f 71/2/115 68/2/115 232/7/115 231/9/115
f 68/2/120 69/2/120 233/2/120 232/7/120
f 69/2/34 70/2/34 234/3/34 233/2/34
f 70/2/121 71/2/121 231/9/121 234/3/121
f 236/11/10 235/12/10 238/12/10 237/11/10
f 240/13/10 239/11/10 242/13/10 241/11/10
f 244/12/10 243/13/10 246/14/10 245/11/10
f 248/13/10 247/13/10 250/11/10 249/12/10
f 252/12/122 251/11/122 254/11/122 253/11/122
f 256/11/123 255/13/123 258/13/123 257/13/123
f 260/13/124 259/14/124 262/11/124 261/11/124
f 264/13/125 263/15/125 266/11/125 265/11/125
f 268/11/126 267/13/126 270/11/126 269/13/126
f 272/15/127 271/11/127 274/11/127 273/11/127
f 276/13/128 275/11/128 278/11/128 277/11/128
f 280/14/129 279/12/129 282/11/129 281/11/129
f 284/15/66 283/12/66 286/13/66 285/11/66
f 288/11/68 287/14/68 290/11/68 289/12/68
f 292/12/69 291/15/69 294/11/69 293/11/69
f 296/15/71 295/12/71 298/13/71 297/11/71
f 300/11/73 299/14/73 302/11/73 301/12/73
f 304/12/74 303/15/74 306/11/74 305/11/74
f 308/13/77 307/16/77 310/17/77 309/11/77
f 312/12/78 311/11/78 314/11/78 313/11/78
f 316/17/81 315/12/81 318/13/81 317/12/81
f 320/13/86 319/16/86 322/17/86 321/11/86
f 324/12/87 323/11/87 326/11/87 325/11/87
f 328/12/90 327/12/90 330/13/90 329/15/90
f 332/12/94 331/11/94 334/13/94 333/13/94
f 336/11/95 335/18/95 338/12/95 337/11/95
f 340/16/97 339/15/97 342/13/97 341/12/97
f 344/14/102 343/13/102 346/11/102 345/12/102
f 348/11/101 347/15/101 350/11/101 349/12/101
f 352/13/104 351/12/104 354/13/104 353/14/104
f 356/12/108 355/11/108 358/13/108 357/13/108
f 360/11/109 359/18/109 362/12/109 361/11/109
f 364/16/111 363/12/111 366/13/111 365/12/111
f 368/14/116 367/13/116 370/11/116 369/12/116
f 372/11/115 371/15/115 374/11/115 373/12/115
f 376/13/118 375/12/118 378/12/118 377/14/118
f 172/7/15 173/4/15 318/4/15 315/7/15
f 226/7/19 223/3/19 368/3/19 369/7/19
f 95/4/130 96/2/130 239/2/130 240/4/130
f 173/4/131 174/2/131 317/2/131 318/4/131
f 224/4/12 225/7/12 370/7/12 367/4/12
f 98/2/13 95/4/13 240/4/13 241/2/13
f 147/2/132 148/6/132 291/6/132 292/2/132
f 225/7/133 226/7/133 369/7/133 370/7/133
f 96/2/28 97/4/28 242/4/28 239/2/28
f 150/2/22 147/2/22 292/2/22 293/2/22
f 199/3/1 200/4/1 343/4/1 344/3/1
f 97/4/12 98/2/12 241/2/12 242/4/12
f 148/6/19 149/2/19 294/2/19 291/6/19
f 202/7/31 199/3/31 344/3/31 345/7/31
f 149/2/134 150/2/134 293/2/134 294/2/134
f 200/4/26 201/7/26 346/7/26 343/4/26
f 123/7/131 124/4/131 267/4/131 268/7/131
f 201/7/135 202/7/135 345/7/135 346/7/135
f 126/9/26 123/7/26 268/7/26 269/9/26
f 175/4/8 176/5/8 319/5/8 320/4/8
f 124/4/27 125/2/27 270/2/27 267/4/27
f 178/2/26 175/4/26 320/4/26 321/2/26
f 227/7/135 228/10/135 371/10/135 372/7/135
f 125/2/136 126/9/136 269/9/136 270/2/136
f 176/5/27 177/5/27 322/5/27 319/5/27
f 230/7/19 227/7/19 372/7/19 373/7/19
f 99/2/11 100/4/11 243/4/11 244/2/11
f 177/5/30 178/2/30 321/2/30 322/5/30
f 228/10/12 229/2/12 374/2/12 371/10/12
f 102/7/136 99/2/136 244/2/136 245/7/136
f 151/6/9 152/7/9 295/7/9 296/6/9
f 229/2/137 230/7/137 373/7/137 374/2/137
f 100/4/22 101/3/22 246/3/22 243/4/22
f 154/2/13 151/6/13 296/6/13 297/2/13
f 203/7/133 204/10/133 347/10/133 348/7/133
f 101/3/12 102/7/12 245/7/12 246/3/12
f 152/7/31 153/4/31 298/4/31 295/7/31
f 206/7/31 203/7/31 348/7/31 349/7/31
f 153/4/24 154/2/24 297/2/24 298/4/24
f 204/10/26 205/2/26 350/2/26 347/10/26
f 127/6/138 128/2/138 271/2/138 272/6/138
f 205/2/139 206/7/139 349/7/139 350/2/139
f 130/2/12 127/6/12 272/6/12 273/2/12
f 179/2/140 180/2/140 323/2/140 324/2/140
f 128/2/15 129/2/15 274/2/15 271/2/15
f 182/2/26 179/2/26 324/2/26 325/2/26
f 231/9/139 232/7/139 375/7/139 376/9/139
f 129/2/23 130/2/23 273/2/23 274/2/23
f 180/2/27 181/2/27 326/2/27 323/2/27
f 234/3/19 231/9/19 376/9/19 377/3/19
f 103/4/26 104/4/26 247/4/26 248/4/26
f 181/2/14 182/2/14 325/2/14 326/2/14
f 232/7/12 233/2/12 378/2/12 375/7/12
f 106/2/141 103/4/141 248/4/141 249/2/141
f 155/2/33 156/3/33 299/3/33 300/2/33
f 233/2/32 234/3/32 377/3/32 378/2/32
f 104/4/22 105/2/22 250/2/22 247/4/22
f 158/2/13 155/2/13 300/2/13 301/2/13
f 207/9/137 208/7/137 351/7/137 352/9/137
f 105/2/142 106/2/142 249/2/142 250/2/142
f 156/3/31 157/2/31 302/2/31 299/3/31
f 210/3/31 207/9/31 352/9/31 353/3/31
f 157/2/132 158/2/132 301/2/132 302/2/132
f 208/7/26 209/4/26 354/4/26 351/7/26
f 131/4/134 132/2/134 275/2/134 276/4/134
f 209/4/143 210/3/143 353/3/143 354/4/143
f 134/2/13 131/4/13 276/4/13 277/2/13
f 183/7/25 184/7/25 327/7/25 328/7/25
f 132/2/31 133/2/31 278/2/31 275/2/31
f 186/6/26 183/7/26 328/7/26 329/6/26
f 133/2/142 134/2/142 277/2/142 278/2/142
f 184/7/27 185/4/27 330/4/27 327/7/27
f 107/7/143 108/2/143 251/2/143 252/7/143
f 185/4/138 186/6/138 329/6/138 330/4/138
f 110/7/19 107/7/19 252/7/19 253/7/19
f 159/2/18 160/6/18 303/6/18 304/2/18
f 108/2/12 109/2/12 254/2/12 251/2/12
f 162/2/13 159/2/13 304/2/13 305/2/13
f 211/7/4 212/7/4 355/7/4 356/7/4
f 109/2/141 110/7/141 253/7/141 254/2/141
f 160/6/31 161/2/31 306/2/31 303/6/31
f 214/4/27 211/7/27 356/7/27 357/4/27
f 161/2/144 162/2/144 305/2/144 306/2/144
f 212/7/22 213/4/22 358/4/22 355/7/22
f 135/3/144 136/7/144 279/7/144 280/3/144
f 213/4/145 214/4/145 357/4/145 358/4/145
f 138/2/22 135/3/22 280/3/22 281/2/22
f 187/7/2 188/7/2 331/7/2 332/7/2
f 136/7/19 137/2/19 282/2/19 279/7/19
f 190/4/15 187/7/15 332/7/15 333/4/15
f 137/2/130 138/2/130 281/2/130 282/2/130
f 188/7/13 189/4/13 334/4/13 331/7/13
f 111/7/16 112/9/16 255/9/16 256/7/16
f 189/4/146 190/4/146 333/4/146 334/4/146
f 114/4/27 111/7/27 256/7/27 257/4/27
f 163/4/6 164/5/6 307/5/6 308/4/6
f 112/9/22 113/4/22 258/4/22 255/9/22
f 166/2/12 163/4/12 308/4/12 309/2/12
f 215/7/146 216/8/146 359/8/146 360/7/146
f 113/4/20 114/4/20 257/4/20 258/4/20
f 164/5/15 165/5/15 310/5/15 307/5/15
f 218/2/27 215/7/27 360/7/27 361/2/27
f 165/5/140 166/2/140 309/2/140 310/5/140
f 216/8/22 217/2/22 362/2/22 359/8/22
f 139/6/7 140/7/7 283/7/7 284/6/7
f 217/2/21 218/2/21 361/2/21 362/2/21
f 142/2/22 139/6/22 284/6/22 285/2/22
f 191/7/145 192/8/145 335/8/145 336/7/145
